<?xml version="1.0" encoding="utf-8"?>
<!-- Generator: Adobe Illustrator 22.0.0, SVG Export Plug-In . SVG Version: 6.00 Build 0)  -->
<svg version="1.1" xmlns="http://www.w3.org/2000/svg" xmlns:xlink="http://www.w3.org/1999/xlink" x="0px" y="0px"
	 viewBox="0 0 1920 1080" style="enable-background:new 0 0 1920 1080;" xml:space="preserve">
<style type="text/css">
	.st0{display:none;}
	.st1{display:inline;fill:#FFFFFF;stroke:#000000;stroke-miterlimit:10;}
	.st2{display:inline;fill:#FFFFFF;stroke:#000000;stroke-width:8;stroke-miterlimit:10;}
	.st3{display:inline;}
</style>
<g id="Layer_1" class="st0">
	<path class="st1" d="M778.5,752.5c-7.8,17.8-14.7,41.9-4,59c17.8,28.3,74.2,22,151,11c213.5-30.7,304.8-57.7,328-23
		c16.4,24.6-14.4,60.5,2,74c20.2,16.6,93.2-15.9,121-74c30.3-63.2,4.3-151.3-32-160c-28-6.7-57.7,35-76,55
		C1213,755.2,1088.4,807.1,778.5,752.5z"/>
	<polygon class="st2" points="235.5,360.5 235.5,460.5 712.5,460.5 599.5,540.5 652.5,590.5 897.5,379.5 669.5,200.5 614.5,239.5 
		757.5,349.5 	"/>
</g>
<g id="Layer_2" class="st0">
	<g class="st3">
		<g>
			<path d="M723,444.2c-3.3,0.3-6.7,0.5-10,0.8c0,1,0,2,0,3c100.3-8.1,201-11,301.5-8.3c28.4,0.7,56.9,1.9,85.3,3.5
				c1.9,0.1,1.9-2.9,0-3c-100.4-5.6-201.2-6-301.7-0.8c-28.4,1.4-56.8,3.3-85.2,5.6c-1.9,0.2-1.9,3.1,0,3c3.3-0.3,6.7-0.5,10-0.8
				C724.9,447,724.9,444,723,444.2L723,444.2z"/>
		</g>
	</g>
	<g class="st3">
		<g>
			<path d="M748.2,599.6c-4.7,1.1-9.5,2.1-14.2,3.2c-1.9,0.4-1.1,3.3,0.8,2.9c83.2-17.3,167.7-28.5,252.6-33.3
				c24-1.4,48-2.2,72.1-2.6c1.9,0,1.9-3,0-3c-85.3,1.3-170.4,8.9-254.5,22.8c-23.7,3.9-47.4,8.3-70.9,13.3c0.3,1,0.5,1.9,0.8,2.9
				c4.7-1.1,9.5-2.1,14.2-3.2C750.8,602.1,750,599.2,748.2,599.6L748.2,599.6z"/>
		</g>
	</g>
	<g class="st3">
		<g>
			<path d="M995.4,341.7c32.5,40.2,70.9,75.3,113.8,104c1.6,1.1,3.1-1.5,1.5-2.6c-42.7-28.6-80.9-63.5-113.2-103.5
				C996.3,338,994.2,340.2,995.4,341.7L995.4,341.7z"/>
		</g>
	</g>
	<g class="st3">
		<g>
			<path d="M992.1,349.5c6.1-21.9,13.5-43.5,22.1-64.6c4.4-10.7,9-21.3,14-31.7c2.5-5.3,5.1-10.5,7.8-15.7c1.3-2.5,2.5-4.9,3.9-7.4
				c0.6-1.1,1.2-2.2,1.7-3.3c0.4-0.7,0.8-1.4,1.2-2.1c0.3-0.8,1-1.1,2-1c-0.7,1.8,2.2,2.6,2.9,0.8c1-2.4-1.1-5-3.8-4.5
				c-3.9,0.7-5.9,7.3-7.4,10.2c-6.8,12.8-13,25.8-18.8,39c-11.3,25.8-20.7,52.3-28.3,79.4C988.7,350.6,991.6,351.4,992.1,349.5
				L992.1,349.5z"/>
		</g>
	</g>
	<g class="st3">
		<g>
			<path d="M1028.6,237.5c57.1,72.5,122.4,138.6,194.2,196.5c19.9,16.1,40.4,31.5,61.3,46.4c1.6,1.1,3.1-1.5,1.5-2.6
				c-74.9-53.2-143.9-114.7-205.2-183.2c-17.2-19.2-33.8-39-49.7-59.2C1029.6,233.9,1027.4,236,1028.6,237.5L1028.6,237.5z"/>
		</g>
	</g>
	<g class="st3">
		<g>
			<path d="M1252,494.3c-16.6,14.2-29.5,31.7-42.1,49.4c-14.6,20.4-29.3,40.9-43.9,61.3c-29,40.5-58,80.9-87,121.4
				c-8.1,11.3-16.2,22.7-24.3,34c-4.3,5.9-8.5,11.9-12.8,17.8c-1.9,2.7-3.9,5.4-5.8,8.1c-1.1,1.5-2.1,3-3.2,4.5
				c-0.9,1.1-5.7,6.4-5.9,2.4c0.1,1.9,3.1,1.9,3,0c-0.2-5.3-7.7-1.1-6,2.8c1,2.3,4.2,2.3,6.2,1.4c4.8-2,8.1-8.8,10.9-12.8
				c17.2-24,34.4-48,51.6-72c34.6-48.3,69.2-96.6,103.8-144.9c17.7-24.7,34.4-51.3,57.7-71.2C1255.6,495.2,1253.5,493.1,1252,494.3
				L1252,494.3z"/>
		</g>
	</g>
	<g class="st3">
		<g>
			<path d="M1042.7,570.4c15.3-2.3,30.6-4.6,45.9-6.8c-0.5-0.8-1-1.7-1.5-2.5c-39.2,41.7-78.1,83.6-116.9,125.6
				c-1.3,1.4,0.8,3.5,2.1,2.1c38.8-42.1,77.7-83.9,116.9-125.6c1.1-1.2,0-2.7-1.5-2.5c-15.3,2.3-30.6,4.6-45.9,6.8
				C1040,567.8,1040.8,570.6,1042.7,570.4L1042.7,570.4z"/>
		</g>
	</g>
	<g class="st3">
		<g>
			<path d="M977.6,674.4c10.8,32.5,24.9,63.9,42.1,93.5c1,1.7,3.6,0.2,2.6-1.5c-17.1-29.4-31.1-60.5-41.8-92.8
				C979.9,671.7,977,672.5,977.6,674.4L977.6,674.4z"/>
		</g>
	</g>
	<g class="st3">
		<g>
			<path d="M743.1,438.3c-9.3,1-11.9,10.8-12.4,18.8c-0.4,7.5,0.6,15.2,1,22.7c0.5,9,1,18,1.5,26.9c1.9,34.9,3.9,69.8,5.8,104.8
				c0.1,1.9,3.1,1.9,3,0c-1.7-30.9-3.4-61.9-5.1-92.8c-0.8-15.3-1.7-30.6-2.5-45.9c-0.5-8.2-4-30.2,8.8-31.6
				C745,441.1,745,438.1,743.1,438.3L743.1,438.3z"/>
		</g>
	</g>
</g>
<g id="Layer_3">
	<g>
		<g>
			<path d="M532.2,468.7c-9.3,47.4-22.4,93.9-39,139.2c-0.4,1,0.8,2.2,1.8,1.8c53.4-19.5,110.4-24,166.8-25.1
				c59.3-1.1,118.6-0.6,177.9-1.1c34.3-0.3,68.6-0.7,103-1.1c1.9,0,1.9-3,0-3c-61.3,0.8-122.6,1.3-183.9,1.6
				c-57.7,0.3-115.9-1.5-173.3,5.1c-31.1,3.6-61.8,9.9-91.2,20.7c0.6,0.6,1.2,1.2,1.8,1.8c16.7-45.3,29.7-91.8,39-139.2
				C535.4,467.6,532.5,466.8,532.2,468.7L532.2,468.7z"/>
		</g>
	</g>
	<g>
		<g>
			<path d="M535.7,469.9c118.6-1.4,237.2-1.2,355.7,0.5c33.3,0.5,66.6,1.1,99.9,1.9c1.9,0,1.9-3,0-3c-118.5-2.6-237.1-3.7-355.7-3.2
				c-33.3,0.1-66.6,0.4-99.9,0.8C533.7,466.9,533.7,469.9,535.7,469.9L535.7,469.9z"/>
		</g>
	</g>
	<g>
		<g>
			<path d="M933.8,587.8c23.8-1.3,47.7-2.6,71.5-3.9c-0.4-0.8-0.9-1.5-1.3-2.3c-37.6,54.7-75.2,109.3-112.7,164
				c-0.7,1,0.2,2.2,1.3,2.3c30.4,1.1,60.9,2.3,91.3,3.4c7.3,0.3,14.6,0.6,21.8,0.8c4.7,0.1,8.9-0.2,12.8-3.2
				c5-3.8,8.8-9.5,12.9-14.2c5.2-6,10.4-12.1,15.6-18.1c39.4-45.8,78.9-91.7,118.3-137.5c22.1-25.7,44.2-51.4,66.3-77.1
				c0.7-0.8,0.5-1.8-0.3-2.4c-70.2-51-137.2-106.4-200.4-165.8c-15.5-14.6-30.9-29.5-46-44.6c-4.2-4.2-10.7-14.2-17.9-11.9
				c-3.4,1.1-6,4.3-8.4,6.6c-4.3,4.2-8.5,8.3-12.8,12.5c-8.3,8.1-16.6,16.2-24.9,24.2c-5.6,5.4-15.5,12-16.3,20.5
				c-0.7,6.8,4.5,12.2,9.4,16.1c7.5,6,15.6,11.3,23.2,17.3c35.1,28,65.3,61.8,89.3,99.7c0.4-0.8,0.9-1.5,1.3-2.3
				c-21.4-0.1-42.7-0.1-64.1-0.2c-1.9,0-1.9,3,0,3c21.4,0.1,42.7,0.1,64.1,0.2c1.1,0,1.9-1.3,1.3-2.3c-19.7-31.2-43.6-59.7-71-84.4
				c-6.7-6.1-13.6-11.9-20.7-17.5c-7.3-5.7-15.2-10.7-22.3-16.6c-3.2-2.7-6.6-6-7.3-10.3c-1-5.8,3.7-9.9,7.5-13.5
				c7.8-7.6,15.6-15.2,23.4-22.8c7.8-7.6,15.6-15.2,23.4-22.8c1.9-1.8,4.3-4.8,7.2-4.8c2.8,0,5.2,3,7,4.8c3.7,3.7,7.4,7.5,11.1,11.2
				c14.3,14.2,28.7,28.1,43.4,41.9c29.8,27.9,60.4,55,91.8,81.1c34.8,29,70.6,56.7,107.2,83.4c-0.1-0.8-0.2-1.6-0.3-2.4
				c-38.6,44.8-77.1,89.7-115.7,134.5c-19.1,22.2-38.1,44.3-57.2,66.5c-9.5,11.1-19.1,22.2-28.6,33.3c-3.9,4.5-8,11.1-13.5,13.8
				c-6.2,3-15.8,0.9-22.6,0.7c-33.1-1.2-66.1-2.5-99.2-3.7c0.4,0.8,0.9,1.5,1.3,2.3c37.6-54.7,75.2-109.3,112.7-164
				c0.6-0.9-0.2-2.3-1.3-2.3c-23.8,1.3-47.7,2.6-71.5,3.9C931.9,584.9,931.9,587.9,933.8,587.8L933.8,587.8z"/>
		</g>
	</g>
	<g>
		<g>
			<path d="M932.8,582.9c3,0.2,5.9,0.4,8.9,0.7c0-1,0-2,0-3c-3.5,0.1-7.1,0.3-10.6,0.4c-1.5,0.1-2,2-0.8,2.8
				c2.5,1.7,5.2,2.2,8.1,1.8c1.9-0.3,1.1-3.2-0.8-2.9c-2.1,0.3-4-0.3-5.8-1.5c-0.3,0.9-0.5,1.9-0.8,2.8c3.5-0.1,7.1-0.3,10.6-0.4
				c1.9-0.1,1.9-2.9,0-3c-3-0.2-5.9-0.4-8.9-0.7C930.9,579.7,930.9,582.7,932.8,582.9L932.8,582.9z"/>
		</g>
	</g>
</g>
</svg>
